<?xml version="1.0" encoding="UTF-8"?>
<svg id="Layer_2" data-name="Layer 2" xmlns="http://www.w3.org/2000/svg" viewBox="0 0 554.67 542.56">
  <defs>
    <style>
      .cls-1 {
        fill: #da4081;
      }

      .cls-2 {
        fill: #221f20;
      }

      .cls-3 {
        fill: #e69abd;
      }
    </style>
  </defs>
  <g>
    <polygon class="cls-2" points="179.07 160.11 179.07 115.66 103.21 115.66 62.92 115.66 58.77 115.66 58.77 392.11 62.62 392.11 103.21 392.11 178.77 392.11 178.77 347.66 103.21 347.66 103.21 160.11 179.07 160.11"/>
    <polygon class="cls-2" points="370.29 160.11 370.29 115.66 446.14 115.66 486.44 115.66 490.58 115.66 490.58 392.11 486.73 392.11 446.14 392.11 370.58 392.11 370.58 347.66 446.14 347.66 446.14 160.11 370.29 160.11"/>
    <polygon class="cls-1" points="337.6 320.53 299.66 320.53 251.24 187.24 289.18 187.24 337.6 320.53"/>
    <polygon class="cls-1" points="240.75 320.53 202.81 320.53 154.39 187.24 192.34 187.24 240.75 320.53"/>
    <polygon class="cls-3" points="202.82 320.53 240.76 320.53 289.17 187.24 251.23 187.24 202.82 320.53"/>
    <polygon class="cls-3" points="299.66 320.53 337.6 320.53 386.02 187.24 348.08 187.24 299.66 320.53"/>
  </g>
  <g>
    <path d="m144.23,440.89h6.01v6.14l-4.98,2.88h-12.15l-4.98-2.88v-24.73l4.98-2.88h12.15l4.98,2.88v6.14h-6.01v-3.86h-10.09v20.18h10.09v-3.86Z"/>
    <path d="m180.5,447.03l-4.98,2.88h-13.44l-4.98-2.88v-24.73l4.98-2.88h13.44l4.98,2.88v24.73Zm-17.39-22.45v20.18h11.38v-20.18h-11.38Z"/>
    <path d="m211.2,446.81l-4.98,2.88h-18.42v-30.05h18.42l4.98,2.88v24.3Zm-17.39-22.02v19.75h11.38v-19.75h-11.38Z"/>
    <path d="m224.5,436.81v7.73h11.98v5.15h-17.99v-30.05h17.99v5.15h-11.98v6.87h9.4v5.15h-9.4Z"/>
    <g>
      <path d="m299.18,419.64l-7.64,30.05h-6.44l-5.41-20.31h-.09l-5.41,20.31h-6.44l-7.64-30.05h5.84l5.07,20.61h.09l5.49-20.61h6.1l5.49,20.52h.09l5.06-20.52h5.84Z"/>
      <path d="m327.3,447.03l-4.98,2.88h-13.44l-4.98-2.88v-24.73l4.98-2.88h13.44l4.98,2.88v24.73Zm-17.39-22.45v20.18h11.38v-20.18h-11.38Z"/>
      <path d="m359.88,449.69v-19.83h-.09l-6.78,19.83h-5.71l-6.83-20.09h-.09v20.09h-5.79v-30.05h7.98l7.56,22.11h.09l7.51-22.11h7.94v30.05h-5.8Z"/>
      <path d="m378.98,436.81v7.73h11.98v5.15h-17.99v-30.05h17.99v5.15h-11.98v6.87h9.4v5.15h-9.4Z"/>
      <path d="m402.55,430.24v19.45h-6.01v-30.05h5.62l12.96,19.45h.09v-19.45h6.01v30.05h-5.62l-12.96-19.45h-.09Z"/>
    </g>
  </g>
</svg>